<svg xmlns="http://www.w3.org/2000/svg" viewBox="0 0 560 320" width="560" height="320">
  <rect width="560" height="320" fill="#0D1117"/>
  <g stroke="#1F2630" stroke-width="1">
    <line x1="0" y1="64" x2="560" y2="64"/><line x1="0" y1="128" x2="560" y2="128"/>
    <line x1="0" y1="192" x2="560" y2="192"/><line x1="0" y1="256" x2="560" y2="256"/>
  </g>
  <line x1="0" y1="214" x2="560" y2="214" stroke="#E4222F" stroke-width="2" stroke-dasharray="8 6"/>
  <text x="12" y="208" fill="#E4222F" font-family="sans-serif" font-size="13" font-weight="700">Liquidity</text>
  <line x1="0" y1="92" x2="560" y2="92" stroke="#00C853" stroke-width="2" stroke-dasharray="8 6"/>
  <text x="12" y="86" fill="#00C853" font-family="sans-serif" font-size="13" font-weight="700">Target</text>
  <g stroke-width="2">
    <line x1="40" y1="150" x2="40" y2="196" stroke="#E4222F"/><rect x="33" y="160" width="14" height="28" fill="#E4222F"/>
    <line x1="72" y1="170" x2="72" y2="222" stroke="#E4222F"/><rect x="65" y="182" width="14" height="30" fill="#E4222F"/>
    <line x1="104" y1="190" x2="104" y2="236" stroke="#E4222F"/><rect x="97" y="200" width="14" height="26" fill="#E4222F"/>
    <line x1="136" y1="176" x2="136" y2="230" stroke="#00C853"/><rect x="129" y="186" width="14" height="34" fill="#00C853"/>
    <line x1="168" y1="150" x2="168" y2="196" stroke="#00C853"/><rect x="161" y="160" width="14" height="28" fill="#00C853"/>
    <line x1="200" y1="158" x2="200" y2="200" stroke="#E4222F"/><rect x="193" y="166" width="14" height="22" fill="#E4222F"/>
    <line x1="232" y1="132" x2="232" y2="184" stroke="#00C853"/><rect x="225" y="142" width="14" height="34" fill="#00C853"/>
    <line x1="264" y1="112" x2="264" y2="160" stroke="#00C853"/><rect x="257" y="122" width="14" height="30" fill="#00C853"/>
    <line x1="296" y1="120" x2="296" y2="162" stroke="#E4222F"/><rect x="289" y="128" width="14" height="22" fill="#E4222F"/>
    <line x1="328" y1="100" x2="328" y2="150" stroke="#00C853"/><rect x="321" y="110" width="14" height="32" fill="#00C853"/>
    <line x1="360" y1="86" x2="360" y2="132" stroke="#00C853"/><rect x="353" y="96" width="14" height="28" fill="#00C853"/>
    <line x1="392" y1="96" x2="392" y2="140" stroke="#E4222F"/><rect x="385" y="104" width="14" height="24" fill="#E4222F"/>
    <line x1="424" y1="80" x2="424" y2="126" stroke="#00C853"/><rect x="417" y="90" width="14" height="28" fill="#00C853"/>
    <line x1="456" y1="70" x2="456" y2="112" stroke="#00C853"/><rect x="449" y="78" width="14" height="26" fill="#00C853"/>
    <line x1="488" y1="60" x2="488" y2="104" stroke="#00C853"/><rect x="481" y="68" width="14" height="28" fill="#00C853"/>
  </g>
  <text x="548" y="306" fill="#5B6573" font-family="sans-serif" font-size="12" text-anchor="end">1m structure</text>
</svg>
